<?xml version="1.0" encoding="UTF-8"?><svg xmlns="http://www.w3.org/2000/svg" viewBox="0 0 737.72 367.96"><defs><style>.cls-1{fill:none;}.cls-2{fill:#143fe0;}.cls-3{isolation:isolate;}.cls-4{mix-blend-mode:multiply;}</style></defs><g class="cls-3"><g id="Calque_1"><g class="cls-4"><path class="cls-2" d="M281.88,266.58c.63-.9.95-2,.95-3.29,0-1.81-.62-3.23-1.86-4.26-1.24-1.03-2.94-1.55-5.1-1.55h-6.5v16.67h2.38v-5.07h4.12c.25,0,.6-.02,1.05-.05l3.6,5.12h2.59l-3.95-5.6c1.18-.41,2.08-1.07,2.72-1.98ZM275.81,267.06h-4.05v-7.5h4.05c1.51,0,2.66.32,3.45.96.79.64,1.19,1.57,1.19,2.78s-.4,2.14-1.19,2.79c-.79.65-1.94.97-3.45.97Z"/></g><g class="cls-4"><polygon class="cls-2" points="291.46 266.7 299.81 266.7 299.81 264.68 291.46 264.68 291.46 259.56 300.84 259.56 300.84 257.49 289.07 257.49 289.07 274.15 301.17 274.15 301.17 272.08 291.46 272.08 291.46 266.7"/></g><g class="cls-4"><path class="cls-2" d="M318.63,265.51c.68-.33,1.23-.82,1.63-1.45s.61-1.39.61-2.26c0-1.35-.52-2.41-1.56-3.17-1.04-.76-2.51-1.14-4.42-1.14h-7.48v16.67h7.95c2.08,0,3.66-.39,4.75-1.17s1.63-1.89,1.63-3.33c0-1.08-.28-1.97-.83-2.68-.56-.71-1.32-1.19-2.29-1.47ZM309.79,259.42h4.88c1.22,0,2.16.23,2.82.68s.99,1.11.99,1.99-.33,1.54-.99,1.99-1.6.68-2.82.68h-4.88v-5.33ZM318.32,271.56c-.68.45-1.7.67-3.05.67h-5.48v-5.55h5.48c2.71,0,4.07.93,4.07,2.79,0,.95-.34,1.65-1.02,2.09Z"/></g><g class="cls-4"><path class="cls-2" d="M339.87,258.4c-1.35-.74-2.86-1.11-4.53-1.11s-3.2.37-4.55,1.11c-1.35.74-2.41,1.76-3.18,3.06-.77,1.3-1.16,2.75-1.16,4.36s.38,3.05,1.16,4.36c.77,1.3,1.83,2.32,3.18,3.06,1.35.74,2.87,1.11,4.55,1.11s3.18-.37,4.53-1.11c1.35-.74,2.4-1.75,3.17-3.05s1.14-2.75,1.14-4.37-.38-3.08-1.14-4.37-1.82-2.31-3.17-3.05ZM340.95,269.09c-.56.98-1.33,1.74-2.31,2.3-.98.56-2.07.84-3.3.84s-2.33-.28-3.32-.84c-.99-.55-1.77-1.32-2.33-2.3-.56-.97-.85-2.07-.85-3.27s.28-2.3.85-3.27,1.34-1.74,2.33-2.3c.99-.56,2.1-.83,3.32-.83s2.32.28,3.3.83c.98.56,1.75,1.32,2.31,2.3.56.98.84,2.07.84,3.27s-.28,2.3-.84,3.27Z"/></g><g class="cls-4"><path class="cls-2" d="M362.7,266.58c.63-.9.95-2,.95-3.29,0-1.81-.62-3.23-1.86-4.26-1.24-1.03-2.94-1.55-5.1-1.55h-6.5v16.67h2.38v-5.07h4.12c.25,0,.6-.02,1.05-.05l3.6,5.12h2.59l-3.95-5.6c1.18-.41,2.08-1.07,2.72-1.98ZM356.63,267.06h-4.05v-7.5h4.05c1.51,0,2.66.32,3.45.96.79.64,1.19,1.57,1.19,2.78s-.4,2.14-1.19,2.79c-.79.65-1.94.97-3.45.97Z"/></g><g class="cls-4"><polygon class="cls-2" points="381.85 269.92 371.85 257.49 369.89 257.49 369.89 274.15 372.27 274.15 372.27 261.72 382.27 274.15 384.23 274.15 384.23 257.49 381.85 257.49 381.85 269.92"/></g><g class="cls-4"><polygon class="cls-2" points="400.4 274.15 402.78 274.15 402.78 267.42 411.14 267.42 411.14 265.37 402.78 265.37 402.78 259.56 412.16 259.56 412.16 257.49 400.4 257.49 400.4 274.15"/></g><g class="cls-4"><path class="cls-2" d="M429.76,258.4c-1.35-.74-2.86-1.11-4.53-1.11s-3.2.37-4.55,1.11c-1.35.74-2.41,1.76-3.18,3.06-.77,1.3-1.16,2.75-1.16,4.36s.38,3.05,1.16,4.36c.77,1.3,1.83,2.32,3.18,3.06,1.35.74,2.87,1.11,4.55,1.11s3.18-.37,4.53-1.11c1.35-.74,2.4-1.75,3.17-3.05s1.14-2.75,1.14-4.37-.38-3.08-1.14-4.37-1.82-2.31-3.17-3.05ZM430.84,269.09c-.56.98-1.33,1.74-2.31,2.3-.98.56-2.07.84-3.3.84s-2.33-.28-3.32-.84c-.99-.55-1.77-1.32-2.33-2.3-.56-.97-.85-2.07-.85-3.27s.28-2.3.85-3.27,1.34-1.74,2.33-2.3c.99-.56,2.1-.83,3.32-.83s2.32.28,3.3.83c.98.56,1.75,1.32,2.31,2.3.56.98.84,2.07.84,3.27s-.28,2.3-.84,3.27Z"/></g><g class="cls-4"><path class="cls-2" d="M452.59,266.58c.63-.9.95-2,.95-3.29,0-1.81-.62-3.23-1.86-4.26-1.24-1.03-2.94-1.55-5.1-1.55h-6.5v16.67h2.38v-5.07h4.12c.25,0,.6-.02,1.05-.05l3.6,5.12h2.59l-3.95-5.6c1.18-.41,2.08-1.07,2.72-1.98ZM446.52,267.06h-4.05v-7.5h4.05c1.51,0,2.66.32,3.45.96.79.64,1.19,1.57,1.19,2.78s-.4,2.14-1.19,2.79c-.79.65-1.94.97-3.45.97Z"/></g><g class="cls-4"><polygon class="cls-2" points="466.16 259.56 471.88 259.56 471.88 274.15 474.24 274.15 474.24 259.56 479.95 259.56 479.95 257.49 466.16 257.49 466.16 259.56"/></g><g class="cls-4"><path class="cls-2" d="M496.74,258.4c-1.35-.74-2.86-1.11-4.53-1.11s-3.2.37-4.55,1.11c-1.35.74-2.41,1.76-3.18,3.06-.77,1.3-1.16,2.75-1.16,4.36s.38,3.05,1.16,4.36c.77,1.3,1.83,2.32,3.18,3.06,1.35.74,2.87,1.11,4.55,1.11s3.18-.37,4.53-1.11c1.35-.74,2.4-1.75,3.17-3.05s1.14-2.75,1.14-4.37-.38-3.08-1.14-4.37-1.82-2.31-3.17-3.05ZM497.82,269.09c-.56.98-1.33,1.74-2.31,2.3-.98.56-2.07.84-3.3.84s-2.33-.28-3.32-.84c-.99-.55-1.77-1.32-2.33-2.3-.56-.97-.85-2.07-.85-3.27s.28-2.3.85-3.27,1.34-1.74,2.33-2.3c.99-.56,2.1-.83,3.32-.83s2.32.28,3.3.83c.98.56,1.75,1.32,2.31,2.3.56.98.84,2.07.84,3.27s-.28,2.3-.84,3.27Z"/></g><g class="cls-4"><polygon class="cls-2" points="522.84 257.49 515.98 269.2 509.03 257.49 507.07 257.49 507.07 274.15 509.36 274.15 509.36 262.08 515.38 272.13 516.48 272.13 522.5 262.01 522.53 274.15 524.81 274.15 524.79 257.49 522.84 257.49"/></g><g class="cls-4"><path class="cls-2" d="M544.24,258.4c-1.35-.74-2.86-1.11-4.53-1.11s-3.2.37-4.55,1.11c-1.35.74-2.41,1.76-3.18,3.06-.77,1.3-1.16,2.75-1.16,4.36s.38,3.05,1.16,4.36c.77,1.3,1.83,2.32,3.18,3.06,1.35.74,2.87,1.11,4.55,1.11s3.18-.37,4.53-1.11c1.35-.74,2.4-1.75,3.17-3.05s1.14-2.75,1.14-4.37-.38-3.08-1.14-4.37-1.82-2.31-3.17-3.05ZM545.33,269.09c-.56.98-1.33,1.74-2.31,2.3-.98.56-2.07.84-3.3.84s-2.33-.28-3.32-.84c-.99-.55-1.77-1.32-2.33-2.3-.56-.97-.85-2.07-.85-3.27s.28-2.3.85-3.27,1.34-1.74,2.33-2.3c.99-.56,2.1-.83,3.32-.83s2.32.28,3.3.83c.98.56,1.75,1.32,2.31,2.3.56.98.84,2.07.84,3.27s-.28,2.3-.84,3.27Z"/></g><g class="cls-4"><path class="cls-2" d="M567.08,266.58c.63-.9.95-2,.95-3.29,0-1.81-.62-3.23-1.86-4.26-1.24-1.03-2.94-1.55-5.1-1.55h-6.5v16.67h2.38v-5.07h4.12c.25,0,.6-.02,1.05-.05l3.6,5.12h2.59l-3.95-5.6c1.18-.41,2.08-1.07,2.72-1.98ZM561.01,267.06h-4.05v-7.5h4.05c1.51,0,2.66.32,3.45.96.79.64,1.19,1.57,1.19,2.78s-.4,2.14-1.19,2.79c-.79.65-1.94.97-3.45.97Z"/></g><g class="cls-4"><path class="cls-2" d="M586.77,266.58c.63-.9.95-2,.95-3.29,0-1.81-.62-3.23-1.86-4.26-1.24-1.03-2.94-1.55-5.1-1.55h-6.5v16.67h2.38v-5.07h4.12c.25,0,.6-.02,1.05-.05l3.6,5.12h2.59l-3.95-5.6c1.18-.41,2.08-1.07,2.72-1.98ZM580.7,267.06h-4.05v-7.5h4.05c1.51,0,2.66.32,3.45.96.79.64,1.19,1.57,1.19,2.78s-.4,2.14-1.19,2.79c-.79.65-1.94.97-3.45.97Z"/></g><g class="cls-4"><path class="cls-2" d="M606.01,258.4c-1.35-.74-2.86-1.11-4.53-1.11s-3.2.37-4.55,1.11c-1.35.74-2.41,1.76-3.18,3.06-.77,1.3-1.16,2.75-1.16,4.36s.38,3.05,1.16,4.36c.77,1.3,1.83,2.32,3.18,3.06,1.35.74,2.87,1.11,4.55,1.11s3.18-.37,4.53-1.11c1.35-.74,2.4-1.75,3.17-3.05s1.14-2.75,1.14-4.37-.38-3.08-1.14-4.37-1.82-2.31-3.17-3.05ZM607.1,269.09c-.56.98-1.33,1.74-2.31,2.3-.98.56-2.07.84-3.3.84s-2.33-.28-3.32-.84c-.99-.55-1.77-1.32-2.33-2.3-.56-.97-.85-2.07-.85-3.27s.28-2.3.85-3.27,1.34-1.74,2.33-2.3c.99-.56,2.1-.83,3.32-.83s2.32.28,3.3.83c.98.56,1.75,1.32,2.31,2.3.56.98.84,2.07.84,3.27s-.28,2.3-.84,3.27Z"/></g><g class="cls-4"><polygon class="cls-2" points="632.52 271.11 627.92 257.49 625.73 257.49 621.04 271.03 616.54 257.49 614.08 257.49 619.66 274.15 622.2 274.15 626.75 260.84 631.3 274.15 633.8 274.15 639.37 257.49 637.11 257.49 632.52 271.11"/></g><g class="cls-4"><path class="cls-2" d="M236.32,184.72c-5.54-3.19-12.34-4.81-20.23-4.81s-14.83,1.85-21.7,5.5c-6.86,3.64-12.55,9.02-16.92,16.01-4.37,6.98-6.58,15.58-6.58,25.58s1.91,18.07,5.68,25c3.74,6.89,9.01,12.26,15.66,15.94,6.67,3.7,14.44,5.58,23.09,5.58s16.35-1.9,22.58-5.64c5.35-3.22,9.85-7.58,13.4-12.98-2.86,2.83-5.9,5.09-9.07,6.72-4.13,2.13-9.55,3.21-16.1,3.21-9.83,0-17.37-3.24-22.41-9.62-4.65-5.89-7.2-15.32-7.59-28.07h-.04l-.02-1.63v-.69s.01-1.62.01-1.62l1.61-.1h55.26c.17-.73.29-1.53.37-2.41.12-1.39.18-2.77.18-4.12,0-7.02-1.5-13.36-4.45-18.85-2.94-5.45-7.23-9.83-12.74-13.01ZM231.78,220.52l-.05.58h-35.67l.04-.79v-.14s0-.38,0-.38v-1.46s.04,0,.04,0c.22-9.14,1.01-16.39,2.36-21.57,1.56-6.01,3.71-10.13,6.59-12.58,2.88-2.46,6.39-3.71,10.44-3.71,7.16,0,12.07,3.42,14.6,10.15,2.35,6.25,2.89,16.04,1.66,29.91Z"/></g><g class="cls-4"><path class="cls-2" d="M359.93,165.27c0-10.84-1.6-19.81-4.76-26.67-3.13-6.83-7.46-11.94-12.86-15.19-5.41-3.26-11.71-4.91-18.72-4.91-4.95,0-9.91.72-14.75,2.15-4.62,1.36-8.94,3.46-13.19,6.43l-1.27.89v-54.29l-33.85,8.48v1.1c1.73.22,5.86,1.04,7.57,3.93.9,1.54,1.34,3.66,1.34,6.48v93.53c14.12,17.62,31.51,26.56,51.69,26.56,7.02,0,13.54-1.81,19.38-5.38,5.84-3.56,10.59-8.97,14.1-16.06,3.53-7.12,5.31-16.21,5.31-27.03ZM330.25,191.56c-1.81,6.26-4.31,10.76-7.46,13.38-3.17,2.64-6.92,3.98-11.14,3.98-3.37,0-6.38-.43-8.97-1.27-2.59-.84-5.13-2.05-7.57-3.59l-.38-.24v-73.67l.37-.24c5.16-3.36,10.86-5.06,16.93-5.06,4.33,0,8.11,1.2,11.21,3.58,3.1,2.38,5.52,6.6,7.2,12.56,1.65,5.86,2.49,14.29,2.49,25.05s-.9,19.36-2.68,25.53Z"/></g><g class="cls-4"><path class="cls-2" d="M465.8,140.87c-3.94-6.9-9.37-12.27-16.14-15.96-6.81-3.7-14.64-5.58-23.29-5.58s-16.52,1.91-23.39,5.67c-6.85,3.76-12.31,9.16-16.24,16.06-3.95,6.92-5.95,15.26-5.95,24.78s1.88,17.97,5.59,25.02c3.69,7.02,9,12.5,15.76,16.3,6.8,3.82,14.94,5.76,24.22,5.76s17.39-1.94,24.12-5.76c6.71-3.81,11.98-9.26,15.67-16.22,3.71-7.01,5.59-15.46,5.59-25.11s-2-18.05-5.95-24.97ZM444.36,193.81c-1.28,6.86-3.33,11.55-6.26,14.34-2.95,2.81-6.9,4.24-11.73,4.24s-8.81-1.42-11.82-4.23c-3.01-2.8-5.09-7.49-6.36-14.35-1.21-6.49-1.83-15.77-1.83-27.59s.62-21.29,1.83-27.78c1.27-6.85,3.35-11.55,6.36-14.35,3.01-2.81,6.99-4.23,11.82-4.23s8.78,1.43,11.73,4.24c2.93,2.79,4.98,7.48,6.26,14.34,1.21,6.49,1.83,15.84,1.83,27.78s-.62,21.1-1.83,27.59Z"/></g><g class="cls-4"><path class="cls-2" d="M578.09,204.87l-.07-.06h-3.56c-5.97,0-9.36-3.41-9.55-9.59v-51.48c0-5.66-1.54-10.32-4.58-13.86-3.1-3.6-7.32-6.27-12.55-7.93-5.7-1.81-9.09-2.56-15.31-2.56-14.71,0-25.54,3.37-32.16,10.01-6.5,6.52-7.28,14.48-7.37,18.39h19.41c-.88-9.77.78-17.29,4.82-21.84,2.68-3.01,6.42-4.67,10.54-4.67,8.35,0,14.19,6.59,14.19,16.04l.08,22.65v1.38s-.05,0-.05,0v.13s-1.36.23-1.36.23c-3.11.53-13.55,2.32-17.38,3.07-10.84,2.13-19.55,5.71-25.21,10.36-5.72,4.72-8.5,9.67-8.5,15.14,0,7.4,2.26,12.88,6.9,16.76,4.67,3.9,10.53,5.88,17.44,5.88,5.94,0,10.82-1.33,14.5-3.96,3.88-2.77,7.72-6.18,11.42-10.12l2.07-2.21.69,2.95c.92,3.91,2.86,7.09,5.78,9.43,2.91,2.34,7,3.53,12.16,3.53,4.86,0,8.64-.76,11.23-2.25,2.27-1.31,4.43-3.14,6.42-5.44ZM541.97,163.96v32.4l-.58.49c-3.09,2.58-5.83,4.52-8.13,5.77-2.44,1.33-5.09,2-7.89,2-3.86,0-7.2-1.48-9.91-4.41-2.68-2.89-4.04-7.18-4.04-12.76,0-6.47,1.91-11.73,5.67-15.63,1.52-1.57,3.05-3.07,5.09-4.01,3.85-1.77,14.56-4.6,17.75-5.43l2.03-.52v2.1Z"/></g><g class="cls-4"><path class="cls-2" d="M642.13,205.39c-2.28,1.5-4.94,2.25-7.9,2.25-3.51,0-6.44-1.34-8.71-3.97-2.21-2.57-3.33-6.31-3.33-11.11v-71.44h21.42v-2h-21.42v-25.52c-6.44,8.43-20.98,26.7-32.19,27.21,2.19.39,5.65,1.42,7.28,4.19.9,1.52,1.36,3.56,1.43,6.24v57.91c0,8.33,2.08,14.43,6.19,18.13,4.16,3.75,10.14,5.65,17.77,5.65,6,0,11.15-1.2,15.31-3.58,3.29-1.88,6.04-4.3,8.23-7.24-1.36,1.29-2.72,2.39-4.08,3.28Z"/></g><g class="cls-4"><path class="cls-2" d="M151.35,181.83c-2.59,0-5.02.42-7.22,1.26-2.18.84-4.54,2.55-7.01,5.08-2.52,2.58-5.42,6.46-8.62,11.53l-.24.38h-2.17v-17.67l-34.58,10.5v.96c1.68.1,5.5.63,7.86,3.3,1.12,1.28,1.62,3.34,1.62,6.7v59.33c0,2.54-.52,4.66-1.54,6.31-1.06,1.68-2.96,2.95-5.67,3.76l-2.26.6v.46h47.46v-.47l-5.47-1.54c-4.8-1.37-7.23-4.82-7.23-10.26v-53.13l.33-.51c4.33-5.29,9.42-7.94,15.2-7.94,3.72,0,7.43.63,11.02,1.87l5.55,1.94,6.46-17.84c-1.36-.85-5.25-3.11-9.91-4.15-1.46-.33-2.63-.49-3.57-.49Z"/></g><rect class="cls-1" width="737.72" height="367.96"/></g></g></svg>